<svg xmlns="http://www.w3.org/2000/svg" xmlns:xlink="http://www.w3.org/1999/xlink" width="22" height="12" viewBox="0 0 22 12"><defs><path id="puffa" d="M631.701 1547.179a.94.94 0 0 0-1.363 0l-1.352 1.403v-7.581c0-.553-.432-1.001-.965-1.001h-9.439c-.532 0-.964.448-.964 1 0 .553.432 1.002.964 1.002h8.475v6.58l-1.352-1.404a.94.94 0 0 0-1.364 0 1.028 1.028 0 0 0 0 1.416l2.998 3.112a.947.947 0 0 0 .682.293.948.948 0 0 0 .682-.293l2.999-3.112a1.027 1.027 0 0 0 0-1.415zm-8.3 2.82h-8.475v-6.582l1.352 1.404a.944.944 0 0 0 1.364 0 1.028 1.028 0 0 0 0-1.415l-2.999-3.113a.947.947 0 0 0-.682-.293.947.947 0 0 0-.682.293l-2.998 3.113a1.028 1.028 0 0 0 0 1.415.94.94 0 0 0 1.364 0l1.353-1.404V1551c0 .552.431 1 .964 1h9.44c.532 0 .963-.448.963-1 0-.553-.431-1-.964-1z"/></defs><g><g transform="translate(-610 -1540)"><use fill="#fff" xlink:href="#puffa"/></g></g></svg>